<?xml version="1.0" encoding="utf-8"?>
<svg fill="#000000" width="800px" height="800px" viewBox="0 0 256 256" xmlns="http://www.w3.org/2000/svg">
  <g fill-rule="evenodd">
    <path d="M 58.458 228.867 C 58.03 231.034 59.465 232.777 61.684 232.76 L 183.241 231.822 C 185.451 231.805 186.921 230.028 186.525 227.852 L 174.687 162.939 C 174.29 160.764 173.061 160.546 171.94 162.452 L 162.784 178.034 C 161.664 179.941 161.074 183.241 161.471 185.422 L 166.386 212.452 C 166.781 214.627 165.314 216.389 163.098 216.389 L 82.611 216.389 C 80.4 216.389 78.952 214.634 79.378 212.469 L 108.85 62.533 L 137.29 62.043 L 149.076 106.473 C 149.643 108.612 151.086 108.859 152.312 107.008 L 160.704 94.338 C 161.924 92.495 162.434 89.28 161.843 87.153 L 152.247 52.653 C 151.063 48.396 146.512 44.976 142.109 45.015 L 102.718 45.364 C 98.303 45.403 94.03 48.948 93.174 53.276 L 58.458 228.867 Z" style="fill: rgb(52, 167, 83);"/>
    <path d="M 110.116 198.935 C 108.934 200.8 109.769 202.312 111.983 202.312 L 124.375 202.312 C 126.589 202.312 129.343 200.788 130.518 198.922 L 195.068 96.459 C 196.248 94.588 198.974 92.762 201.144 92.385 L 210.725 90.718 C 212.902 90.339 215.217 88.338 215.903 86.222 L 220.675 71.532 C 221.358 69.428 220.612 66.498 218.998 64.977 L 207.53 54.173 C 205.921 52.656 203.048 52.311 201.13 53.393 L 189.331 60.048 C 187.406 61.134 185.705 63.802 185.532 66.002 L 184.594 77.969 C 184.421 80.171 183.324 83.467 182.141 85.332 L 110.115 198.935 Z" style="fill: rgb(251, 188, 6);"/>
  </g>
</svg>